<svg width="120" height="120" style="border: solid 1px lightgrey;">
  <path d="M 28 74 L 84 74 L 84 78 L 28 78 Z" stroke="black" />
  <path d="M 38 46 L 74 46 L 74 50 L 38 50 Z" stroke="black" />
  <path d="M 38 70 L 74 70 L 74 74 L 38 74 Z" stroke="black" />
  <path d="M 38 50 L 42 50 L 42 70 L 38 70 Z" stroke="black" />
  <path d="M 70 50 L 74 50 L 74 70 L 70 70 Z" stroke="black" />
  <path d="M 74 46 L 88 46 L 88 50 L 74 50 Z" stroke="black" />
  <path d="M 74 58 L 88 58 L 88 62 L 74 62 Z" stroke="black" />
  <path d="M 84 50 L 88 50 L 88 58 L 84 58 Z" stroke="black" />
</svg>
