<svg width="120" height="120" style="border: solid 1px lightgrey;">
  <path d="M 40 40 L 100 40 L 100 44 L 40 44 Z" stroke="black" />
  <path d="M 40 96 L 100 96 L 100 100 L 40 100 Z" stroke="black" />
  <path d="M 40 44 L 44 44 L 44 96 L 40 96 Z" stroke="black" />
  <path d="M 96 44 L 100 44 L 100 96 L 96 96 Z" stroke="black" />
  <path d="M 20 20 L 24 20 L 24 24 L 20 24 Z" stroke="black" />
  <path d="M 30 20 L 34 20 L 34 24 L 30 24 Z" stroke="black" />
  <path d="M 40 20 L 44 20 L 44 24 L 40 24 Z" stroke="black" />
  <path d="M 50 20 L 54 20 L 54 24 L 50 24 Z" stroke="black" />
  <path d="M 60 20 L 64 20 L 64 24 L 60 24 Z" stroke="black" />
  <path d="M 70 20 L 74 20 L 74 24 L 70 24 Z" stroke="black" />
  <path d="M 76 30 L 80 30 L 80 34 L 76 34 Z" stroke="black" />
  <path d="M 20 30 L 24 30 L 24 34 L 20 34 Z" stroke="black" />
  <path d="M 20 40 L 24 40 L 24 44 L 20 44 Z" stroke="black" />
  <path d="M 20 50 L 24 50 L 24 54 L 20 54 Z" stroke="black" />
  <path d="M 20 60 L 24 60 L 24 64 L 20 64 Z" stroke="black" />
  <path d="M 20 70 L 24 70 L 24 74 L 20 74 Z" stroke="black" />
  <path d="M 30 76 L 34 76 L 34 80 L 30 80 Z" stroke="black" />
</svg>
