<svg width="120" height="120" style="border: solid 1px lightgrey;">
   <path d="M 30 20 L 34 20 L 34 100 L 30 100 Z" stroke="black" />
   <path d="M 86 20 L 90 20 L 90 100 L 86 100 Z" stroke="black" />
   <path d="M 34 20 L 86 20 L 86 24 L 34 24 Z" stroke="black" />
   <path d="M 30 96 L 86 96 L 86 100 L 30 100 Z" stroke="black" />
   <path d="M 22 56 L 30 56 L 30 64 L 22 64 Z" stroke="black" />
   <path d="M 90 56 L 98 56 L 98 64 L 90 64 Z" stroke="black" />
   <path d="M 22 48 L 30 48 L 30 40 L 22 40 Z" stroke="black" />
   <path d="M 90 48 L 98 48 L 98 40 L 90 40 Z" stroke="black" />
   <path d="M 22 24 L 30 24 L 30 32 L 22 32 Z" stroke="black" />
   <path d="M 90 24 L 98 24 L 98 32 L 90 32 Z" stroke="black" />
   <path d="M 22 72 L 30 72 L 30 80 L 22 80 Z" stroke="black" />
   <path d="M 90 72 L 98 72 L 98 80 L 90 80 Z" stroke="black" />
   <path d="M 22 88 L 30 88 L 30 96 L 22 96 Z" stroke="black" />
   <path d="M 90 88 L 98 88 L 98 96 L 90 96 Z" stroke="black" />
</svg>